<svg width="15" height="20" viewBox="0 0 15 20" fill="none" xmlns="http://www.w3.org/2000/svg">
<path id="Poi" d="M8.52366 18.4359C9.37434 17.4363 10.8324 15.6435 12.0799 13.7097C12.7037 12.7429 13.2799 11.7331 13.7014 10.7638C14.1203 9.80029 14.4 8.84638 14.4 8C14.4 3.94153 11.3382 0.6 7.5 0.6C3.66184 0.6 0.6 3.94153 0.6 8C0.6 8.84638 0.879662 9.80029 1.29858 10.7638C1.72006 11.7331 2.29632 12.7429 2.92005 13.7097C4.16763 15.6435 5.62566 17.4363 6.47634 18.4359C7.01774 19.0721 7.98226 19.0721 8.52366 18.4359ZM9.88571 8C9.88571 9.46437 8.79019 10.6 7.5 10.6C6.20981 10.6 5.11429 9.46437 5.11429 8C5.11429 6.53563 6.20981 5.4 7.5 5.4C8.79019 5.4 9.88571 6.53563 9.88571 8Z" stroke="#FFE715" stroke-width="0.8" stroke-linecap="round" stroke-linejoin="round"/>
</svg>
