<svg width="140" height="30" viewBox="0 0 140 30" fill="none" xmlns="http://www.w3.org/2000/svg">
<rect width="140" height="30" fill="#282828"/>
<g filter="url(#filter0_d_86_14910)">
<path d="M24.7 16.1L22.69 11.9H22.6V26H18.31V5.06H23.29L29.02 14.96L31.03 19.16H31.12V5.06H35.41V26H30.43L24.7 16.1ZM62.2061 26L60.7061 21.02H53.7161L52.2161 26H47.5961L54.4961 5.06H60.1361L66.9461 26H62.2061ZM57.2561 9.2H57.1061L54.7961 17.15H59.5961L57.2561 9.2ZM73.0919 26L66.3419 5.06H70.9619L74.0819 15.11L75.7319 21.68H75.8219L77.4119 15.11L80.5319 5.06H85.0019L78.1919 26H73.0919ZM96.5615 9.11V26H92.0015V9.11H86.3315V5.06H102.231V9.11H96.5615ZM112.989 26.36C111.609 26.36 110.349 26.13 109.209 25.67C108.069 25.21 107.099 24.53 106.299 23.63C105.499 22.71 104.879 21.58 104.439 20.24C103.999 18.88 103.779 17.31 103.779 15.53C103.779 13.75 103.999 12.19 104.439 10.85C104.879 9.49 105.499 8.36 106.299 7.46C107.099 6.54 108.069 5.85 109.209 5.39C110.349 4.93 111.609 4.7 112.989 4.7C114.369 4.7 115.629 4.93 116.769 5.39C117.909 5.85 118.879 6.54 119.679 7.46C120.479 8.36 121.099 9.49 121.539 10.85C121.979 12.19 122.199 13.75 122.199 15.53C122.199 17.31 121.979 18.88 121.539 20.24C121.099 21.58 120.479 22.71 119.679 23.63C118.879 24.53 117.909 25.21 116.769 25.67C115.629 26.13 114.369 26.36 112.989 26.36ZM112.989 22.31C114.369 22.31 115.439 21.86 116.199 20.96C116.979 20.06 117.369 18.77 117.369 17.09V13.97C117.369 12.29 116.979 11 116.199 10.1C115.439 9.2 114.369 8.75 112.989 8.75C111.609 8.75 110.529 9.2 109.749 10.1C108.989 11 108.609 12.29 108.609 13.97V17.09C108.609 18.77 108.989 20.06 109.749 20.96C110.529 21.86 111.609 22.31 112.989 22.31Z" fill="white"/>
<path d="M42.359 26.33C41.459 26.33 40.789 26.11 40.349 25.67C39.929 25.21 39.719 24.63 39.719 23.93V23.33C39.719 22.63 39.929 22.06 40.349 21.62C40.789 21.16 41.459 20.93 42.359 20.93C43.259 20.93 43.919 21.16 44.339 21.62C44.779 22.06 44.999 22.63 44.999 23.33V23.93C44.999 24.63 44.779 25.21 44.339 25.67C43.919 26.11 43.259 26.33 42.359 26.33Z" fill="#FEE715"/>
</g>
<defs>
<filter id="filter0_d_86_14910" x="17.3101" y="4.70001" width="105.889" height="23.66" filterUnits="userSpaceOnUse" color-interpolation-filters="sRGB">
<feFlood flood-opacity="0" result="BackgroundImageFix"/>
<feColorMatrix in="SourceAlpha" type="matrix" values="0 0 0 0 0 0 0 0 0 0 0 0 0 0 0 0 0 0 127 0" result="hardAlpha"/>
<feOffset dy="1"/>
<feGaussianBlur stdDeviation="0.5"/>
<feComposite in2="hardAlpha" operator="out"/>
<feColorMatrix type="matrix" values="0 0 0 0 1 0 0 0 0 0.905882 0 0 0 0 0.0823529 0 0 0 0.25 0"/>
<feBlend mode="normal" in2="BackgroundImageFix" result="effect1_dropShadow_86_14910"/>
<feBlend mode="normal" in="SourceGraphic" in2="effect1_dropShadow_86_14910" result="shape"/>
</filter>
</defs>
</svg>
